<?xml version="1.0" encoding="UTF-8" standalone="no"?>
<svg
   xmlns:dc="http://purl.org/dc/elements/1.1/"
   xmlns:cc="http://creativecommons.org/ns#"
   xmlns:rdf="http://www.w3.org/1999/02/22-rdf-syntax-ns#"
   xmlns:svg="http://www.w3.org/2000/svg"
   xmlns="http://www.w3.org/2000/svg"
   xmlns:xlink="http://www.w3.org/1999/xlink"
   xmlns:sodipodi="http://sodipodi.sourceforge.net/DTD/sodipodi-0.dtd"
   xmlns:inkscape="http://www.inkscape.org/namespaces/inkscape"
   width="512"
   height="512"
   viewBox="0 0 135.46666 135.46666"
   version="1.1"
   id="svg8"
   inkscape:version="1.0.1 (3bc2e813f5, 2020-09-07)"
   sodipodi:docname="orbit.svg"
   inkscape:export-filename="D:\Developer\openHELIOS\res\new.png"
   inkscape:export-xdpi="96"
   inkscape:export-ydpi="96">
  <defs
     id="defs2">
    <linearGradient
       inkscape:collect="always"
       id="linearGradient935">
      <stop
         style="stop-color:#ff9955;stop-opacity:1"
         offset="0"
         id="stop931" />
      <stop
         style="stop-color:#ffcc00;stop-opacity:1"
         offset="1"
         id="stop933" />
    </linearGradient>
    <linearGradient
       inkscape:collect="always"
       id="linearGradient925">
      <stop
         style="stop-color:#ffcc00;stop-opacity:1"
         offset="0"
         id="stop921" />
      <stop
         style="stop-color:#ffeeaa;stop-opacity:1"
         offset="1"
         id="stop923" />
    </linearGradient>
    <linearGradient
       inkscape:collect="always"
       id="linearGradient897">
      <stop
         style="stop-color:#5fd35f;stop-opacity:1"
         offset="0"
         id="stop893" />
      <stop
         style="stop-color:#002b00;stop-opacity:1"
         offset="1"
         id="stop895" />
    </linearGradient>
    <linearGradient
       inkscape:collect="always"
       id="linearGradient891">
      <stop
         style="stop-color:#5fd35f;stop-opacity:1"
         offset="0"
         id="stop887" />
      <stop
         style="stop-color:#002b00;stop-opacity:1"
         offset="1"
         id="stop889" />
    </linearGradient>
    <linearGradient
       inkscape:collect="always"
       id="linearGradient879">
      <stop
         style="stop-color:#5599ff;stop-opacity:1"
         offset="0"
         id="stop875" />
      <stop
         style="stop-color:#00112b;stop-opacity:1"
         offset="1"
         id="stop877" />
    </linearGradient>
    <linearGradient
       inkscape:collect="always"
       xlink:href="#linearGradient879"
       id="linearGradient881"
       x1="78.619041"
       y1="48.947914"
       x2="41.766369"
       y2="88.824402"
       gradientUnits="userSpaceOnUse" />
    <linearGradient
       inkscape:collect="always"
       xlink:href="#linearGradient897"
       id="linearGradient883"
       x1="80.886902"
       y1="51.215771"
       x2="45.546127"
       y2="88.635414"
       gradientUnits="userSpaceOnUse" />
    <linearGradient
       inkscape:collect="always"
       xlink:href="#linearGradient891"
       id="linearGradient885"
       x1="80.886902"
       y1="51.215771"
       x2="45.546127"
       y2="88.635414"
       gradientUnits="userSpaceOnUse" />
    <radialGradient
       inkscape:collect="always"
       xlink:href="#linearGradient925"
       id="radialGradient927"
       cx="136.35493"
       cy="31.479866"
       fx="136.35493"
       fy="31.479866"
       r="33.977651"
       gradientTransform="matrix(1.4893909,-0.68412437,0.6570117,1.4304403,-122.42584,83.996494)"
       gradientUnits="userSpaceOnUse" />
    <linearGradient
       inkscape:collect="always"
       xlink:href="#linearGradient935"
       id="linearGradient937"
       x1="149.1116"
       y1="13.229166"
       x2="119.06249"
       y2="47.058033"
       gradientUnits="userSpaceOnUse"
       gradientTransform="translate(-35.012306,4.2763122)" />
  </defs>
  <sodipodi:namedview
     id="base"
     pagecolor="#ffffff"
     bordercolor="#666666"
     borderopacity="1.0"
     inkscape:pageopacity="0.0"
     inkscape:pageshadow="2"
     inkscape:zoom="0.98994949"
     inkscape:cx="837.3532"
     inkscape:cy="192.79456"
     inkscape:document-units="px"
     inkscape:current-layer="layer1"
     inkscape:document-rotation="0"
     showgrid="false"
     units="px"
     width="256mm"
     inkscape:window-width="2560"
     inkscape:window-height="1017"
     inkscape:window-x="-8"
     inkscape:window-y="-8"
     inkscape:window-maximized="1"
     showguides="false" />
  <metadata
     id="metadata5">
    <rdf:RDF>
      <cc:Work
         rdf:about="">
        <dc:format>image/svg+xml</dc:format>
        <dc:type
           rdf:resource="http://purl.org/dc/dcmitype/StillImage" />
        <dc:title />
      </cc:Work>
    </rdf:RDF>
  </metadata>
  <g
     inkscape:label="Layer 1"
     inkscape:groupmode="layer"
     id="layer1">
    <path
       style="fill:url(#radialGradient927);fill-opacity:1;stroke:#ffe680;stroke-width:0.529167;stroke-linecap:round;stroke-linejoin:round;stroke-miterlimit:4;stroke-dasharray:none"
       d="m 92.243224,67.082178 c -0.8982,-1.740214 -2.07619,-3.996996 -2.43554,-4.665976 -0.17531,-0.32635 -0.48181,-0.908923 -0.68112,-1.294606 -0.5404,-1.045718 -0.59886,-1.096634 -1.17764,-1.025769 -0.44906,0.05497 -1.26556,0.211675 -2.61766,0.502361 -0.27881,0.05994 -0.7643,0.150479 -1.07883,0.201192 -0.54913,0.08853 -1.10658,0.195955 -3.10717,0.598754 -0.50436,0.101543 -1.13548,0.190099 -1.40249,0.196783 l -0.48547,0.01215 -0.0821,-3.290458 c -0.0452,-1.809751 -0.11064,-3.88259 -0.1454,-4.606314 l -0.0632,-1.315858 -0.77163,-0.226043 c -0.42439,-0.124324 -0.94154,-0.27023 -1.14921,-0.324231 -0.20768,-0.054 -0.64461,-0.169032 -0.97096,-0.255619 -0.98135,-0.260377 -1.96402,-0.520107 -2.53527,-0.670105 -1.34531,-0.353249 -1.85672,-0.491249 -2.15768,-0.582233 -0.178,-0.05382 -0.50253,-0.129863 -0.72117,-0.168994 -0.21862,-0.03913 -0.46889,-0.151291 -0.55615,-0.249253 -0.14011,-0.157315 -0.13567,-0.22851 0.038,-0.609651 0.58125,-1.275163 0.86166,-1.907133 0.86166,-1.941908 0,-0.02138 0.14873,-0.369973 0.3305,-0.774632 0.18177,-0.404656 0.37206,-0.832838 0.42285,-0.951508 0.0508,-0.118673 0.24191,-0.543596 0.42469,-0.944273 0.18279,-0.400679 0.33234,-0.749774 0.33234,-0.775771 0,-0.02601 0.18521,-0.450659 0.41158,-0.943697 0.78056,-1.700055 0.76023,-1.57962 0.33147,-1.963525 -0.70828,-0.634196 -2.27645,-1.986172 -3.06255,-2.640375 -0.60618,-0.504457 -3.26727,-2.784114 -3.46722,-2.970229 l -0.23071,-0.214745 0.28464,-0.218658 c 0.35096,-0.269593 1.77498,-1.475983 1.84897,-1.566389 0.0297,-0.03625 0.34522,-0.307566 0.70124,-0.602923 0.35601,-0.295357 0.67158,-0.564339 0.70125,-0.59774 0.0297,-0.03339 0.51514,-0.445556 1.07884,-0.915905 0.56369,-0.470348 1.19482,-1.006608 1.40249,-1.191689 0.20768,-0.185081 0.54362,-0.481549 0.74656,-0.65882 l 0.36896,-0.322309 -0.17746,-0.443509 c -0.0976,-0.24393 -0.27177,-0.6519 -0.38706,-0.906602 -0.11529,-0.254702 -0.35925,-0.79418 -0.54214,-1.198838 -0.18288,-0.404658 -0.33251,-0.768069 -0.33251,-0.807581 0,-0.03951 -0.1187,-0.315271 -0.26378,-0.612805 -0.29119,-0.597195 -0.5772,-1.23952 -1.20164,-2.698644 -0.22854,-0.534025 -0.49809,-1.140872 -0.599,-1.348549 -0.16623,-0.342106 -0.16771,-0.395138 -0.0156,-0.564279 0.0923,-0.102685 0.34318,-0.217322 0.55755,-0.254763 0.21436,-0.03744 0.6325,-0.138387 0.92917,-0.224327 0.29668,-0.08593 0.70934,-0.199583 0.91702,-0.252546 0.20767,-0.05296 0.64461,-0.167139 0.97095,-0.253727 0.32635,-0.08659 0.90892,-0.238427 1.29461,-0.337419 0.38568,-0.099 0.94398,-0.246597 1.24066,-0.328009 0.29669,-0.08142 0.80643,-0.219026 1.13279,-0.305809 1.41249,-0.375609 1.64104,-0.451275 1.74632,-0.578128 0.0685,-0.08253 0.15085,-1.824786 0.21422,-4.532061 0.0566,-2.418889 0.1226,-4.4586636 0.14665,-4.5328338 0.0577,-0.1779576 0.58972,-0.1710579 1.45297,0.018843 0.38569,0.084844 0.96825,0.2044891 1.29461,0.265878 1.30022,0.2445846 2.35324,0.4569094 3.02074,0.6090877 0.38569,0.087929 0.83159,0.1594635 0.99091,0.1589652 0.15931,-4.963e-4 0.41996,0.048636 0.57923,0.1091879 0.52601,0.199991 1.78914,0.335513 1.94231,0.208393 0.0771,-0.06393 0.27085,-0.3680719 0.43071,-0.675869 0.15986,-0.3077969 0.56083,-1.069382 0.89104,-1.6924112 0.61214,-1.1549555 1.38293,-2.6343133 2.40299,-4.6120342 0.3137,-0.6081952 0.60163,-1.1058093 0.63986,-1.1058093 0.0892,0 0.52535,0.3175289 4.32873,3.151407 2.787426,2.076897 3.169396,2.3290265 3.371406,2.2253201 0.18495,-0.09496 1.51498,-1.0535718 1.95394,-1.4083025 0.21331,-0.1723762 0.89737,-0.6812215 1.12898,-0.8397932 0.12999,-0.089005 0.36608,-0.2669797 0.52464,-0.395501 0.82637,-0.6698151 3.64746,-2.7256033 3.74058,-2.7258349 0.0594,-1.481e-4 0.18261,0.1559304 0.27396,0.3468404 0.0913,0.19091 0.49856,0.9782295 0.90491,1.7495992 0.40637,0.7713692 0.98167,1.8636933 1.27847,2.4273862 0.29679,0.5636931 0.82734,1.5823192 1.179,2.2636134 0.35165,0.6812945 0.69683,1.274464 0.76707,1.318156 0.18658,0.116064 0.87847,0.01189 3.11597,-0.469151 0.27883,-0.059943 0.7643,-0.1496715 1.07884,-0.1993967 0.56883,-0.089923 1.67035,-0.3010885 3.21505,-0.616331 0.44502,-0.09082 1.03488,-0.1879285 1.31079,-0.2157967 l 0.50165,-0.05067 0.0631,1.0076098 c 0.0347,0.5541846 0.0894,2.3669456 0.12151,4.0283566 0.0321,1.661411 0.0858,3.296763 0.11929,3.634116 l 0.0609,0.613369 0.5566,0.16267 c 0.30614,0.08946 0.8479,0.240573 1.20391,0.33579 0.35602,0.09522 0.89004,0.240938 1.18672,0.323828 0.29668,0.08289 0.63652,0.172047 0.75519,0.198128 0.11867,0.02608 0.60414,0.156288 1.07884,0.289348 0.47468,0.13306 1.03299,0.281658 1.24066,0.330218 0.20768,0.04856 0.66888,0.167302 1.02489,0.263869 0.35602,0.09657 0.86061,0.220427 1.12129,0.275241 0.8811,0.185261 0.90388,0.294871 0.32794,1.577055 -0.18157,0.404228 -0.37169,0.832054 -0.42248,0.950727 -0.0508,0.118672 -0.24191,0.543594 -0.42469,0.944273 -0.18279,0.400677 -0.33234,0.749101 -0.33234,0.774279 0,0.02517 -0.16421,0.40129 -0.3649,0.835811 -0.2007,0.434521 -0.49211,1.0923 -0.64758,1.461731 -0.15548,0.369432 -0.40016,0.928495 -0.54372,1.24236 -0.14356,0.313867 -0.29177,0.693128 -0.32933,0.842805 -0.0811,0.322911 -0.16196,0.243646 2.96437,2.903736 1.21639,1.034986 2.26512,1.932473 2.3305,1.994417 0.0654,0.06195 0.35416,0.306814 0.64171,0.544158 1.0285,0.848939 1.02087,0.838849 0.81778,1.080859 -0.0986,0.117562 -0.46987,0.455942 -0.82493,0.751959 -0.35506,0.296016 -0.69906,0.587303 -0.76445,0.647304 -0.0654,0.06 -0.33239,0.286153 -0.59336,0.502564 -0.26096,0.216411 -0.64439,0.543139 -0.85206,0.726065 -0.20768,0.182926 -1.14221,0.976818 -2.07673,1.764205 -1.93097,1.626938 -1.85765,1.468621 -1.26907,2.74025 0.17878,0.386245 0.32505,0.724173 0.32505,0.750948 0,0.0268 0.14078,0.351087 0.31287,0.72069 0.51162,1.098885 0.87385,1.91519 0.87385,1.969272 0,0.02788 0.14955,0.378532 0.33234,0.77921 0.18278,0.400675 0.37435,0.825597 0.42569,0.94427 0.0514,0.118674 0.26591,0.593079 0.4768,1.054235 0.21088,0.461157 0.38343,0.908514 0.38343,0.99413 0,0.220659 -0.23668,0.323188 -1.45826,0.631715 -0.59236,0.149608 -1.3683,0.353838 -1.72431,0.453846 -0.35602,0.100002 -0.81723,0.222031 -1.02491,0.271167 -0.20767,0.04914 -0.66887,0.168633 -1.02489,0.265548 -0.35602,0.09692 -0.91432,0.248033 -1.24066,0.335816 -0.32636,0.08779 -0.86038,0.232178 -1.18673,0.32087 -0.32634,0.08869 -0.73796,0.196882 -0.9147,0.240419 -0.43329,0.106738 -0.44935,0.235908 -0.53177,4.278729 -0.0859,4.210291 -0.14263,5.012184 -0.36092,5.095953 -0.14029,0.05383 -1.0282,-0.09949 -4.2341,-0.731124 -0.26702,-0.05261 -0.82531,-0.170345 -1.24066,-0.261641 -0.41536,-0.09129 -0.87656,-0.166389 -1.0249,-0.166876 -0.14835,-6.04e-4 -0.49411,-0.06899 -0.76838,-0.152236 -0.27427,-0.08324 -0.80427,-0.167676 -1.17778,-0.187628 l -0.67909,-0.03628 -0.50475,0.970953 c -0.27761,0.534026 -0.83577,1.602077 -1.24034,2.373446 -0.40458,0.771369 -0.85824,1.64523 -1.00814,1.941909 -0.1499,0.29668 -0.31185,0.555601 -0.35989,0.575381 -0.0481,0.01978 -0.0873,0.126146 -0.0873,0.236373 0,0.110219 -0.041,0.225731 -0.091,0.256685 -0.0501,0.03095 -0.27896,0.434332 -0.5086,0.896406 -0.22965,0.462075 -0.42957,0.858518 -0.44427,0.880983 -0.0372,0.05696 -0.99412,-0.570649 -1.37328,-0.900735 -0.1724,-0.150093 -0.34281,-0.272895 -0.37869,-0.272895 -0.0358,0 -0.18611,-0.111304 -0.33384,-0.247338 -0.14774,-0.136037 -0.51135,-0.413172 -0.80803,-0.615858 -0.29668,-0.202686 -0.63245,-0.454484 -0.74615,-0.559546 -0.11371,-0.105059 -0.40499,-0.325406 -0.64731,-0.489647 -0.24231,-0.164242 -0.46484,-0.324743 -0.49451,-0.356666 -0.24191,-0.260319 -2.64413,-1.955837 -2.78551,-1.966048 -0.0997,-0.0072 -1.580916,1.02771 -3.291556,2.299801 -3.56304,2.649598 -4.20292,3.115493 -4.28419,3.119296 -0.0321,0.0015 -0.32774,-0.519157 -0.65696,-1.157021 z"
       id="path919" />
    <circle
       style="fill:url(#linearGradient937);fill-opacity:1;stroke:#ffeeaa;stroke-width:0.838339;stroke-linecap:round;stroke-linejoin:round;stroke-miterlimit:4;stroke-dasharray:none"
       id="path929"
       cx="100.30317"
       cy="34.79789"
       r="25.075323" />
    <ellipse
       style="fill:url(#linearGradient881);stroke:#000000;stroke-width:0.79374996;stroke-linecap:round;stroke-linejoin:round;fill-opacity:1;stroke-miterlimit:4;stroke-dasharray:none"
       id="path873"
       cx="51.884342"
       cy="83.456139"
       rx="50.134193"
       ry="50.303566" />
    <path
       id="path866"
       style="fill:url(#linearGradient885);stroke:#000000;stroke-width:0.52916664;stroke-linecap:round;stroke-linejoin:round;stroke-miterlimit:4;stroke-dasharray:none;fill-opacity:1"
       d="m 93.27384,111.67218 c 5.406371,-8.00665 8.56299,-17.657449 8.56299,-28.045522 0,-13.510651 -5.339557,-25.774181 -14.023544,-34.795451 0,0 -2.095959,2.792205 -4.206665,5.565639 -1.412805,1.856403 -4.505827,-3.711656 -6.797631,-2.832347 -3.836784,1.47208 -1.27531,6.023685 -3.285522,8.157158 -1.088941,1.155712 -2.789845,2.513907 -4.305166,2.039289 0,0 -4.202108,-1.788259 -5.098224,-0.339881 -1.22,1.971864 0.442315,5.034571 3.512109,6.004574 2.598942,0.821222 7.907501,-1.275865 10.423035,-0.226588 9.891941,4.126119 8.812282,-0.541338 11.555974,2.265878 1.553573,1.589544 2.870315,5.184767 1.132939,6.571043 -2.585828,2.063269 -6.126841,3.89521 -13.028794,-0.113293 -1.710224,-0.993261 -2.898536,2.464416 -5.550489,2.358442 -5.603467,-0.223919 -6.911939,1.983969 -7.591598,4.665776 -0.399041,1.57454 3.262957,1.367717 3.965284,2.832347 1.161182,2.421527 -1.540867,5.588447 -0.453174,8.043867 0.826514,1.86582 2.746641,3.50925 4.758341,3.85198 1.660311,0.28287 3.074344,-1.72759 4.758342,-1.69941 1.745936,0.0293 3.775665,0.5666 4.871635,1.92601 1.609331,1.99616 -1.017429,6.858369 1.246233,7.590689 6.160534,1.993 1.91525,4.93712 5.891281,6.68433 1.128278,0.49581 3.662644,-0.50453 3.662644,-0.50453 z"
       sodipodi:nodetypes="cscssasassassssaaaaassc" />
    <path
       style="fill:url(#linearGradient883);stroke:#000000;stroke-width:0.52916664;stroke-linecap:butt;stroke-linejoin:miter;stroke-opacity:1;stroke-miterlimit:4;stroke-dasharray:none;fill-opacity:1"
       d="m 8.3940226,58.190641 c 2.1099784,5.721856 -1.6740592,5.71226 5.8767584,16.372511 2.057429,2.904679 -0.131485,8.548846 1.232405,10.620039 1.210316,1.837977 5.866108,-0.73072 7.944396,2.182167 1.319661,1.849613 1.962425,1.810653 1.679204,6.483153 -0.154518,2.54919 5.004421,4.8196 5.798192,7.112109 0.685382,1.97948 0.308342,4.73235 0.53665,6.8256 0.27648,2.5349 1.123591,4.41956 1.729227,6.88296 0.835389,3.3979 -0.197389,9.63374 3.285523,9.96986 2.269909,0.21906 0.286993,-3.93922 4.072315,-6.23386 3.715802,-2.2525 2.741375,-4.84101 3.291784,-6.90823 0.589751,-2.21498 3.842385,-2.13998 4.647078,-4.56489 1.403761,-4.23021 4.655369,-8.884089 4.189844,-12.655779 -0.508689,-4.12139 0.0926,-4.78716 -9.465989,-5.22245 -2.780226,-0.12661 -3.528507,-4.096584 -6.961621,-5.653758 -5.241738,-2.37752 -10.410668,-2.87703 -12.802206,-7.137514 -0.943473,-1.68078 -1.223691,-4.508396 0.226588,-5.777985 1.954656,-1.711124 2.565136,-1.804408 3.772201,-4.221559 2.126397,-4.258114 8.688305,7.095165 10.616117,5.920966 2.027579,-1.234963 0.892679,-2.808551 1.362736,-5.396364 0.569925,-3.137626 4.006682,-1.615452 3.962077,-7.632429 -0.02128,-2.871026 8.613642,-3.144877 8.383746,-5.777988 -0.350646,-4.016125 2.420665,-8.391138 -7.022168,-7.933498 -1.980154,0.09597 -2.355952,-3.878471 -3.967336,-4.528827 -2.599979,-1.049354 -5.875009,1.931671 -8.383746,0.679765 -1.189908,-0.593787 -1.42216,-2.247514 -2.13324,-3.371271 -9.14058,4.314421 -16.726364,11.542113 -21.8705354,19.967272"
       id="path869"
       sodipodi:nodetypes="cssssssssssssssassssssssacc" />
  </g>
</svg>
